<svg width="396" height="402" viewBox="0 0 396 402" fill="none" xmlns="http://www.w3.org/2000/svg">
<rect x="86.0627" y="310" width="41.7202" height="82.1256" rx="10" transform="rotate(30 86.0627 310)" fill="url(#paint0_linear_8_46)"/>
<rect x="277" y="330.86" width="41.7202" height="82.1256" rx="10" transform="rotate(-30 277 330.86)" fill="url(#paint1_linear_8_46)"/>
<ellipse cx="59.3171" cy="59.3171" rx="52.8422" ry="31.0448" transform="rotate(-45 59.3171 59.3171)" fill="url(#paint2_linear_8_46)"/>
<ellipse cx="336.475" cy="59.6829" rx="52.8422" ry="31.0448" transform="rotate(-135 336.475 59.6829)" fill="url(#paint3_linear_8_46)"/>
<rect x="379" y="9" width="360" height="360" rx="180" transform="rotate(90 379 9)" fill="white"/>
<rect x="373" y="15" width="348" height="348" rx="174" transform="rotate(90 373 15)" fill="url(#paint4_radial_8_46)"/>
<rect x="373" y="15" width="348" height="348" rx="174" transform="rotate(90 373 15)" fill="url(#paint5_radial_8_46)"/>
<rect x="50" y="39" width="299" height="299" rx="149.5" fill="url(#paint6_radial_8_46)"/>
<g filter="url(#filter0_d_8_46)">
<rect x="138.516" y="163.429" width="86.2903" height="21.58" rx="10.79" transform="rotate(45.9731 138.516 163.429)" fill="white"/>
<rect x="275" y="151.516" width="127.993" height="21.58" rx="10.79" transform="rotate(135.973 275 151.516)" fill="white"/>
</g>
<defs>
<filter id="filter0_d_8_46" x="121.467" y="138.467" width="159.066" height="111.536" filterUnits="userSpaceOnUse" color-interpolation-filters="sRGB">
<feFlood flood-opacity="0" result="BackgroundImageFix"/>
<feColorMatrix in="SourceAlpha" type="matrix" values="0 0 0 0 0 0 0 0 0 0 0 0 0 0 0 0 0 0 127 0" result="hardAlpha"/>
<feOffset dx="2" dy="6"/>
<feGaussianBlur stdDeviation="4"/>
<feComposite in2="hardAlpha" operator="out"/>
<feColorMatrix type="matrix" values="0 0 0 0 0 0 0 0 0 0 0 0 0 0 0 0 0 0 0.25 0"/>
<feBlend mode="normal" in2="BackgroundImageFix" result="effect1_dropShadow_8_46"/>
<feBlend mode="normal" in="SourceGraphic" in2="effect1_dropShadow_8_46" result="shape"/>
</filter>
<linearGradient id="paint0_linear_8_46" x1="75.5145" y1="362.855" x2="146.195" y2="372.278" gradientUnits="userSpaceOnUse">
<stop stop-color="#CAD7E4"/>
<stop offset="1" stop-color="#91ACC8"/>
</linearGradient>
<linearGradient id="paint1_linear_8_46" x1="276.626" y1="343.508" x2="328.341" y2="414.934" gradientUnits="userSpaceOnUse">
<stop stop-color="#C5D6E8"/>
<stop offset="1" stop-color="#9CB7D2"/>
</linearGradient>
<linearGradient id="paint2_linear_8_46" x1="55.0745" y1="12.9067" x2="58.61" y2="96.3453" gradientUnits="userSpaceOnUse">
<stop stop-color="#D3E0EC"/>
<stop offset="1" stop-color="#A7BFD8"/>
</linearGradient>
<linearGradient id="paint3_linear_8_46" x1="263.754" y1="62.6586" x2="414.014" y2="66.5477" gradientUnits="userSpaceOnUse">
<stop stop-color="#9BB4CF"/>
<stop offset="1" stop-color="#E0EBF5"/>
</linearGradient>
<radialGradient id="paint4_radial_8_46" cx="0" cy="0" r="1" gradientUnits="userSpaceOnUse" gradientTransform="translate(446.474 274.497) rotate(-27.4171) scale(462.013)">
<stop stop-color="#E2E9F0"/>
<stop offset="1" stop-color="#86A5C3"/>
</radialGradient>
<radialGradient id="paint5_radial_8_46" cx="0" cy="0" r="1" gradientUnits="userSpaceOnUse" gradientTransform="translate(446.474 274.497) rotate(-27.4171) scale(462.013)">
<stop stop-color="#C7D8E9"/>
<stop offset="1" stop-color="#677F97"/>
</radialGradient>
<radialGradient id="paint6_radial_8_46" cx="0" cy="0" r="1" gradientUnits="userSpaceOnUse" gradientTransform="translate(307.49 310.435) rotate(-133.458) scale(323.905)">
<stop stop-color="#107C10"/>
<stop offset="1" stop-color="#56B60E"/>
</radialGradient>
</defs>
</svg>
